PathFileType	4	(X/Y/Z)	Patient4_TMGait_0pt8_01_left_22.trc.trc
DataRate	CameraRate	NumFrames	NumMarkers	Units	OrigDataRate	OrigDataStartFrame	OrigNumFrames
86.956521739130	86.956521739130	4	33	mm	86.956521739130	1	       141
Frame#	Time	Sacral			L.Shoulder			Chest			R.Shoulder			Neck			R.ASIS			L.ASIS			R.Thigh.Superior			R.Thigh.Lateral			R.Thigh.Inferior			R.Patella			L.Thigh.Superior			L.Thigh.Lateral			L.Thigh.Inferior			L.Patella			L.Shank.Superior			L.Shank.Lateral			L.Shank.Inferior			R.Shank.Superior			R.Shank.Lateral			R.Shank.Inferior			R.Heel			R.Midfoot.Superior			R.Midfoot.Lateral			R.Toe			L.Heel			L.Midfoot.Lateral			L.Midfoot.Superior			L.Toe			L.Elbow			L.Wrist			R.Elbow			R.Wrist			
		X1	Y1	Z1	X2	Y2	Z2	X3	Y3	Z3	X4	Y4	Z4	X5	Y5	Z5	X6	Y6	Z6	X7	Y7	Z7	X8	Y8	Z8	X9	Y9	Z9	X10	Y10	Z10	X11	Y11	Z11	X12	Y12	Z12	X13	Y13	Z13	X14	Y14	Z14	X15	Y15	Z15	X16	Y16	Z16	X17	Y17	Z17	X18	Y18	Z18	X19	Y19	Z19	X20	Y20	Z20	X21	Y21	Z21	X22	Y22	Z22	X23	Y23	Z23	X24	Y24	Z24	X25	Y25	Z25	X26	Y26	Z26	X27	Y27	Z27	X28	Y28	Z28	X29	Y29	Z29	X30	Y30	Z30	X31	Y31	Z31	X32	Y32	Z32	X33	Y33	Z33	

1	23.910000000000	915.367320624701	1008.862688029095	510.601732708238	1072.947577038555	1439.710563606262	326.050902338253	1190.199045575159	1368.033361334362	477.013116889890	1121.466451867174	1437.041604895826	658.918528709325	1072.408383123234	1498.507858444067	482.652750145849	1147.478544441037	947.372128796611	615.281528708120	1118.480099967748	965.544058901937	343.099697874577	1182.544258615353	743.565955700857	589.097563995837	1097.169322642765	635.229121102636	645.364651053839	1174.525929713126	582.406486368968	567.431782214739	1171.579325805232	493.881484765374	571.663562818366	1200.624922329195	780.085204018361	361.583756133230	1146.730885312906	653.007342059401	287.359171519954	1255.621603547300	589.329529379849	337.682833624384	1267.149255894113	499.963846982917	329.135555889130	1200.831487167689	432.427826754823	329.392744916300	1055.902460277865	386.272119069090	295.460938238492	1053.273603956113	257.010017043836	351.793290927843	1142.704676194385	406.451126778563	576.561635283297	1067.818711190677	302.419442457846	632.538070653090	1112.027262955797	208.318271395219	569.689241025881	977.843972721574	44.475323875686	528.860240987506	1148.436186512556	98.257550326942	574.820093124318	1057.616133151236	37.685771308254	607.418981544585	1266.008772804882	43.260118806281	607.602078296700	869.590826299083	181.935552868414	410.918312621790	919.816574702562	143.227667120030	322.054609676455	1026.572233329298	157.629627212513	332.136208215597	1107.008227389546	53.184862873360	288.208766175787	1054.435931428588	1082.946509095669	223.418902366990	1197.775772405200	863.209603166965	229.965721154885	1162.048134396381	1089.486635332064	780.682372480246	1314.993625405498	878.528572779312	793.984069559293	
2	23.921500000000	913.736847642075	1009.164802710542	512.258610553120	1070.919608923475	1439.220267740640	326.443050199051	1189.169180894925	1367.728607199824	476.676203252150	1122.094024968296	1437.242851033094	658.987065422801	1071.736031759362	1498.410385004078	482.960897459538	1146.429515872825	947.161652613709	615.289167553240	1115.622281609506	965.794108505310	343.194003711014	1178.380437167236	742.640331409258	587.790273330777	1092.345398959244	635.154644961091	645.565567235238	1167.713259448491	581.363066798139	566.827120034900	1163.490142017127	493.387294295218	571.187160465646	1199.686463989424	783.164529173857	362.037407860431	1148.764256560619	655.470405612280	287.163111678174	1258.402419355103	593.840727034734	337.759556128140	1272.120361409033	505.549152629914	328.812310313621	1209.260094092199	436.034568176037	328.528000204646	1067.501796786989	382.378482759706	294.670995180109	1072.353789334737	253.046918678808	349.899633697679	1134.493293581019	405.983707906628	576.214615362962	1059.583007431285	302.230285222812	632.679622468888	1103.011121632310	207.965417645450	569.424001635224	968.104577970011	44.437054699838	528.846555097303	1138.628125581790	98.053499011763	574.628020765846	1047.907900706325	37.683086863497	607.528562516049	1256.285412285528	43.079283708699	607.593525259050	894.262516021886	168.096444008421	408.889851651714	945.954745735263	132.548495069359	319.803679358028	1051.455784967854	152.460981865713	329.767324185764	1136.904430220985	52.880371057831	285.329444115299	1048.481712679312	1082.010220607642	226.006773169202	1171.320192699138	854.020663717170	229.820479238338	1173.590560818643	1092.417166937091	781.399836204754	1338.068675886357	891.738322679529	791.391709391883	
3	23.933000000000	912.127644579079	1009.452642172807	513.877791573058	1068.948923381445	1438.726227272134	326.811146699526	1188.171616693271	1367.405312853648	476.323553066228	1122.731938624638	1437.424971958487	659.030969190672	1071.092978831749	1498.297081456996	483.234444824097	1145.379567752623	946.934605728667	615.277253619334	1112.792256418534	966.008415283182	343.271905796607	1174.247762154505	741.708272454416	586.534167936167	1087.525012301016	635.074756966305	645.773845694366	1160.943398914958	580.322990135915	566.267313157681	1155.459011498059	492.893329039033	570.750443846057	1198.695617404304	786.129005105889	362.485501411712	1150.650212849431	657.835542661408	286.995887663478	1260.966537747432	598.177090315109	337.865403663194	1276.826503674049	510.988008319554	328.515047692106	1217.440033297579	439.555028266842	327.710877663905	1078.995261469536	378.409608567022	293.838333300814	1091.323979260783	249.109455648253	348.006338164179	1126.339346138082	405.528634923251	575.902080183443	1051.393951576655	302.037073619795	632.820374768977	1094.073853933026	207.620926002537	569.178081929587	958.484528907908	44.388105587956	528.844904462534	1128.943063091145	97.871541563768	574.463859131618	1038.312819746693	37.675451816125	607.635552358211	1246.675008357336	42.915494200446	607.586298924560	918.925954743577	154.357107889551	406.781520233996	972.088510316957	121.967908895186	317.505329531839	1076.278444644297	147.365012273110	327.403258620088	1166.699277350209	52.671432344941	282.519415158352	1042.461255020505	1081.099753106490	228.489390099946	1145.215370690750	845.341521328981	229.654179540779	1184.863805558456	1095.339867506489	782.084351510297	1360.689930093060	904.999883787174	788.734722779468	
4	23.944500000000	910.558433651969	1009.709093764261	515.419664796949	1067.092535965434	1438.213982042467	327.121229082482	1187.240832010127	1367.030487227620	475.927407448950	1123.398329607226	1437.559032635956	659.013158813334	1070.511211435269	1498.140376085255	483.432669444644	1144.325224339830	946.661173336465	615.215551631550	1110.012629325089	966.138056543174	343.311753319576	1170.146810044284	740.745303687613	585.379926427619	1082.665923106644	634.979969270933	645.994334955448	1154.199501210268	579.279175452359	565.789338453585	1147.475869706841	492.391516830033	570.385410062009	1197.564941555682	788.824471798775	362.917344443231	1152.190479187191	659.972944582568	286.864998318930	1263.056160661534	602.127998055075	338.023071187902	1280.970694388069	516.130329667812	328.283007338054	1225.128462750461	442.923471580761	326.978791579565	1090.362645660354	374.294218372294	292.909021641971	1110.208204263618	245.289180877630	346.099593162379	1118.220237988705	405.091322040224	575.652501050939	1043.220314835398	301.837207101309	632.964463040694	1085.201965574526	207.290083152148	568.968460411962	948.997935023913	44.319084740068	528.864349875855	1119.395168706563	97.722053701782	574.341499858062	1028.839737984295	37.658032293802	607.738376571227	1237.187925918161	42.783565166266	607.581993123716	943.814688873353	140.851710706396	404.495530437396	998.471220483151	111.646814094859	315.108498663153	1101.181451536115	142.515108955433	325.039004659083	1196.507523777938	52.832861569358	279.874332104349	1036.203754500891	1080.288201351073	230.754737085166	1119.653520128497	837.662492744866	229.449457584865	1195.662206739297	1098.255336987979	782.684272557518	1382.478932543067	918.533003658229	785.894183354576	
